<?xml version="1.0" standalone="no"?><!DOCTYPE svg PUBLIC "-//W3C//DTD SVG 1.1//EN" "http://www.w3.org/Graphics/SVG/1.1/DTD/svg11.dtd"><svg t="1718799649220" class="icon" viewBox="0 0 1024 1024" version="1.1" xmlns="http://www.w3.org/2000/svg" p-id="1165" xmlns:xlink="http://www.w3.org/1999/xlink" width="256" height="256"><path d="M243.809524 195.047619a60.952381 60.952381 0 0 1 36.62019 109.714286L280.380952 487.619048h146.285715c9.947429-13.263238 25.161143-22.28419 42.520381-24.088381L475.428571 463.238095a60.952381 60.952381 0 1 1-48.761904 97.572572l-146.285715-0.048762v146.285714c0 31.548952 23.990857 57.539048 54.710858 60.65981l6.241523 0.292571h78.214096a60.952381 60.952381 0 1 1 19.407238 73.191619L341.333333 841.142857a134.095238 134.095238 0 0 1-133.851428-125.903238L207.238095 707.047619V304.761905A60.952381 60.952381 0 0 1 243.809524 195.047619z m548.571428 560.761905a36.571429 36.571429 0 1 1 0 73.142857h-146.285714a36.571429 36.571429 0 1 1 0-73.142857h146.285714z m0-268.190476a36.571429 36.571429 0 1 1 0 73.142857h-146.285714a36.571429 36.571429 0 1 1 0-73.142857h146.285714z m0-268.190477a36.571429 36.571429 0 1 1 0 73.142858h-365.714285a36.571429 36.571429 0 0 1 0-73.142858h365.714285z" fill="#000000" p-id="1166"></path></svg>